<svg width="40" height="40" viewBox="0 0 40 40" fill="none" xmlns="http://www.w3.org/2000/svg">
<rect width="40" height="40" rx="10" fill="#F2F0F8"/>
<path opacity="0.4" d="M17 10C14.38 10 12.25 12.13 12.25 14.75C12.25 17.32 14.26 19.4 16.88 19.49C16.96 19.48 17.04 19.48 17.1 19.49C17.12 19.49 17.13 19.49 17.15 19.49C17.16 19.49 17.16 19.49 17.17 19.49C19.73 19.4 21.74 17.32 21.75 14.75C21.75 12.13 19.62 10 17 10Z" fill="#5E42A7"/>
<path d="M17.0127 21.2559C18.7739 21.2559 20.5069 21.7025 21.8027 22.5664C22.8867 23.289 23.4582 24.2137 23.5322 25.1729L23.54 25.3652C23.5385 26.3316 23.0294 27.2697 22.0107 28.0273L21.8008 28.1758C20.4999 29.0491 18.7628 29.501 17 29.501C15.2371 29.501 13.4991 29.0492 12.1982 28.1758L12.1973 28.1748C11.0383 27.4022 10.46 26.4026 10.46 25.3809C10.46 24.3585 11.039 23.3488 12.208 22.5664L12.207 22.5654C13.5135 21.7013 15.2524 21.2559 17.0127 21.2559Z" fill="#3E1C96" stroke="#3E1C96"/>
<path opacity="0.4" d="M27.9904 15.3401C28.1504 17.2801 26.7704 18.9801 24.8604 19.2101C24.8504 19.2101 24.8504 19.2101 24.8404 19.2101H24.8104C24.7504 19.2101 24.6904 19.2101 24.6404 19.2301C23.6704 19.2801 22.7804 18.9701 22.1104 18.4001C23.1404 17.4801 23.7304 16.1001 23.6104 14.6001C23.5404 13.7901 23.2604 13.0501 22.8404 12.4201C23.2204 12.2301 23.6604 12.1101 24.1104 12.0701C26.0704 11.9001 27.8204 13.3601 27.9904 15.3401Z" fill="#3E1C96"/>
<path d="M29.9902 24.5904C29.9102 25.5604 29.2902 26.4004 28.2502 26.9704C27.2502 27.5204 25.9902 27.7804 24.7402 27.7504C25.4602 27.1004 25.8802 26.2904 25.9602 25.4304C26.0602 24.1904 25.4702 23.0004 24.2902 22.0504C23.6202 21.5204 22.8402 21.1004 21.9902 20.7904C24.2002 20.1504 26.9802 20.5804 28.6902 21.9604C29.6102 22.7004 30.0802 23.6304 29.9902 24.5904Z" fill="#3E1C96"/>
</svg>
