<svg width="27" height="27" viewBox="0 0 27 27" fill="none" xmlns="http://www.w3.org/2000/svg">
<rect x="0.545366" y="0.546342" width="25.0909" height="25.0909" rx="12.5455" fill="white"/>
<rect x="0.545366" y="0.546342" width="25.0909" height="25.0909" rx="12.5455" stroke="url(#paint0_linear_4226_7712)" stroke-width="1.09091"/>
<path d="M21.2723 16.6728C21.2723 18.0061 20.1321 19.0918 18.7318 19.0918H4.90869V9.51084C4.90869 8.17751 6.04894 7.0918 7.44926 7.0918H21.2723V16.6728Z" fill="white"/>
<path d="M17.7015 7.90234C16.7013 7.90234 15.8811 8.67377 15.8811 9.63568V11.4357H18.4517C18.5117 11.4357 18.5817 11.4357 18.6317 11.4452C19.2118 11.4738 19.6419 11.7595 19.6419 12.2547C19.6419 12.6452 19.3519 12.9785 18.8117 13.0452V13.0642C19.4019 13.1023 19.852 13.4166 19.852 13.9023C19.852 14.4262 19.3519 14.769 18.6917 14.769H15.8711V18.2928H18.5417C19.5419 18.2928 20.3621 17.5214 20.3621 16.5595V7.90234H17.7015Z" fill="url(#paint1_linear_4226_7712)"/>
<path d="M16.7713 14.2166H17.8215C17.8365 14.2166 17.8615 14.2142 17.8866 14.2119C17.9116 14.2095 17.9366 14.2071 17.9516 14.2071C18.1516 14.169 18.3217 13.9976 18.3217 13.7595C18.3217 13.5309 18.1516 13.3595 17.9516 13.3119C17.9216 13.3023 17.8615 13.3023 17.8215 13.3023H16.7713V14.2166Z" fill="url(#paint2_linear_4226_7712)"/>
<path d="M17.8215 11.9594C18.0216 11.988 18.1916 12.1404 18.1916 12.369C18.1916 12.5975 18.0216 12.7499 17.8215 12.7785C17.8115 12.788 17.7515 12.788 17.7215 12.788H16.7713V11.9499H17.7215C17.738 11.9499 17.7606 11.9528 17.7809 11.9554C17.7975 11.9575 17.8125 11.9594 17.8215 11.9594Z" fill="url(#paint3_linear_4226_7712)"/>
<path d="M7.63949 7.90234C6.63927 7.90234 5.81908 8.67377 5.81908 9.63568V13.9119C6.3292 14.15 6.85932 14.3023 7.38943 14.3023C8.01957 14.3023 8.35965 13.9404 8.35965 13.4452V11.4262H9.92V13.4357C9.92 14.2166 9.40988 14.8547 7.6795 14.8547C6.62926 14.8547 5.80908 14.6357 5.80908 14.6357V18.2833H8.47968C9.4799 18.2833 10.3001 17.5119 10.3001 16.55V7.90234H7.63949Z" fill="url(#paint4_linear_4226_7712)"/>
<path d="M12.6705 7.90234C11.6703 7.90234 10.8501 8.67377 10.8501 9.63568V11.9023C11.3102 11.5309 12.1104 11.2928 13.4007 11.35C14.0908 11.3785 14.831 11.5595 14.831 11.5595V12.2928C14.4609 12.1119 14.0208 11.95 13.4507 11.9119C12.4705 11.8452 11.8803 12.3023 11.8803 13.1023C11.8803 13.9119 12.4705 14.369 13.4507 14.2928C14.0208 14.2547 14.4609 14.0833 14.831 13.9119V14.6452C14.831 14.6452 14.1008 14.8262 13.4007 14.8547C12.1104 14.9119 11.3102 14.6738 10.8501 14.3023V18.3023H13.5207C14.5209 18.3023 15.3411 17.5309 15.3411 16.569V7.90234H12.6705Z" fill="url(#paint5_linear_4226_7712)"/>
<defs>
<linearGradient id="paint0_linear_4226_7712" x1="25.0908" y1="4.90998" x2="-0.818271" y2="25.0918" gradientUnits="userSpaceOnUse">
<stop stop-color="#FAD61A"/>
<stop offset="1" stop-color="#E16635"/>
</linearGradient>
<linearGradient id="paint1_linear_4226_7712" x1="15.8791" y1="12.3675" x2="20.374" y2="12.3675" gradientUnits="userSpaceOnUse">
<stop stop-color="#007940"/>
<stop offset="0.2285" stop-color="#00873F"/>
<stop offset="0.7433" stop-color="#40A737"/>
<stop offset="1" stop-color="#5CB531"/>
</linearGradient>
<linearGradient id="paint2_linear_4226_7712" x1="15.8791" y1="12.3675" x2="20.374" y2="12.3675" gradientUnits="userSpaceOnUse">
<stop stop-color="#007940"/>
<stop offset="0.2285" stop-color="#00873F"/>
<stop offset="0.7433" stop-color="#40A737"/>
<stop offset="1" stop-color="#5CB531"/>
</linearGradient>
<linearGradient id="paint3_linear_4226_7712" x1="15.8791" y1="12.3675" x2="20.374" y2="12.3675" gradientUnits="userSpaceOnUse">
<stop stop-color="#007940"/>
<stop offset="0.2285" stop-color="#00873F"/>
<stop offset="0.7433" stop-color="#40A737"/>
<stop offset="1" stop-color="#5CB531"/>
</linearGradient>
<linearGradient id="paint4_linear_4226_7712" x1="5.81681" y1="13.0933" x2="10.3812" y2="13.0933" gradientUnits="userSpaceOnUse">
<stop stop-color="#1F286F"/>
<stop offset="0.4751" stop-color="#004E94"/>
<stop offset="0.8261" stop-color="#0066B1"/>
<stop offset="1" stop-color="#006FBC"/>
</linearGradient>
<linearGradient id="paint5_linear_4226_7712" x1="10.8241" y1="13.0933" x2="15.2571" y2="13.0933" gradientUnits="userSpaceOnUse">
<stop stop-color="#6C2C2F"/>
<stop offset="0.1735" stop-color="#882730"/>
<stop offset="0.5731" stop-color="#BE1833"/>
<stop offset="0.8585" stop-color="#DC0436"/>
<stop offset="1" stop-color="#E60039"/>
</linearGradient>
</defs>
</svg>
