<svg width="43" height="43" viewBox="0 0 43 43" fill="none" xmlns="http://www.w3.org/2000/svg">
<rect x="0.625" y="0.625" width="41.25" height="41.25" rx="10.625" fill="#F2F0F8"/>
<rect x="0.625" y="0.625" width="41.25" height="41.25" rx="10.625" stroke="#D8D2EA" stroke-width="1.25"/>
<path opacity="0.4" d="M20.26 29.27C25.2361 29.27 29.27 25.2361 29.27 20.26C29.27 15.2839 25.2361 11.25 20.26 11.25C15.2839 11.25 11.25 15.2839 11.25 20.26C11.25 25.2361 15.2839 29.27 20.26 29.27Z" fill="#5E42A7"/>
<path d="M29.2705 27.75C30.0952 27.7501 30.5815 28.0423 30.7959 28.4326H30.7969C31.0037 28.827 30.9806 29.395 30.5186 30.0664L30.5137 30.0723C29.9395 30.9335 29.4109 31.0302 29.1504 31.0303C29.0721 31.0303 29.054 31.0284 29.042 31.0264L29.0312 31.0254L29.0205 31.0234C28.8953 31.0082 28.6984 30.9549 28.4902 30.7832C28.2824 30.6118 28.0354 30.299 27.8447 29.7227C27.6669 29.1798 27.7442 28.6818 27.9961 28.332C28.2483 27.9819 28.6962 27.75 29.2705 27.75Z" fill="#3E1C96" stroke="#3E1C96"/>
</svg>
