<svg width="43" height="43" viewBox="0 0 43 43" fill="none" xmlns="http://www.w3.org/2000/svg">
<rect x="0.625" y="0.625" width="41.25" height="41.25" rx="10.625" fill="#F2F0F8"/>
<rect x="0.625" y="0.625" width="41.25" height="41.25" rx="10.625" stroke="#D8D2EA" stroke-width="1.25"/>
<path opacity="0.4" d="M29.6502 25.5808C29.3702 26.3308 28.7802 26.9008 28.0102 27.1608C26.9302 27.5208 25.8202 27.7908 24.7002 27.9808C24.5902 28.0008 24.4802 28.0208 24.3702 28.0308C24.1902 28.0608 24.0102 28.0808 23.8302 28.1008C23.6102 28.1308 23.3802 28.1508 23.1502 28.1708C22.5202 28.2208 21.9002 28.2508 21.2702 28.2508C20.6302 28.2508 19.9902 28.2208 19.3602 28.1608C19.0902 28.1408 18.8302 28.1108 18.5702 28.0708C18.4202 28.0508 18.2702 28.0308 18.1302 28.0108C18.0202 27.9908 17.9102 27.9808 17.8002 27.9608C16.6902 27.7808 15.5902 27.5108 14.5202 27.1508C13.7202 26.8808 13.1102 26.3108 12.8402 25.5808C12.5702 24.8608 12.6702 24.0208 13.1002 23.3008L14.2302 21.4208C14.4702 21.0108 14.6902 20.2208 14.6902 19.7408V17.8808C14.6902 14.2508 17.6402 11.3008 21.2702 11.3008C24.8902 11.3008 27.8402 14.2508 27.8402 17.8808V19.7408C27.8402 20.2208 28.0602 21.0108 28.3102 21.4208L29.4402 23.3008C29.8502 24.0008 29.9302 24.8208 29.6502 25.5808Z" fill="#5E42A7"/>
<path d="M21.25 15.8906C21.3938 15.8906 21.5096 16.0066 21.5098 16.1504V19.2451C21.5027 19.4014 21.3758 19.5107 21.25 19.5107C21.1064 19.5106 20.9904 19.3946 20.9902 19.251V16.1504C20.9904 16.0067 21.1063 15.8908 21.25 15.8906Z" fill="#3E1C96" stroke="#3E1C96"/>
<path d="M24.0802 29.26C23.6602 30.42 22.5502 31.25 21.2502 31.25C20.4602 31.25 19.6802 30.93 19.1302 30.36C18.8102 30.06 18.5702 29.66 18.4302 29.25C18.5602 29.27 18.6902 29.28 18.8302 29.3C19.0602 29.33 19.3002 29.36 19.5402 29.38C20.1102 29.43 20.6902 29.46 21.2702 29.46C21.8402 29.46 22.4102 29.43 22.9702 29.38C23.1802 29.36 23.3902 29.35 23.5902 29.32C23.7502 29.3 23.9102 29.28 24.0802 29.26Z" fill="#3E1C96"/>
</svg>
