<svg width="120" height="120" viewBox="0 0 120 120" fill="none" xmlns="http://www.w3.org/2000/svg">
<g clip-path="url(#clip0_4226_22167)">
<path d="M10.4652 28.6069H20.598C22.9356 28.6069 25.0944 29.3737 26.838 30.6697C28.3968 29.7937 30.15 29.2225 32.0172 29.0389C33.0564 23.2597 38.1108 18.8737 44.1912 18.8737H99.1224C102.538 18.8737 105.63 20.2585 107.868 22.4965C109.483 24.1117 110.653 26.1721 111.18 28.4773C116.178 27.6877 120 23.3605 120 18.1417C120 15.2521 118.829 12.6361 116.935 10.7425C115.04 8.84773 112.426 7.67773 109.536 7.67773H10.4652C4.686 7.67653 0 12.3625 0 18.1417C0 21.0313 1.1712 23.6473 3.0648 25.5409C4.9596 27.4357 7.5744 28.6057 10.464 28.6057L10.4652 28.6069ZM26.556 22.5721C27.2004 22.5721 27.7224 23.0941 27.7224 23.7385C27.7224 24.3829 27.2004 24.9061 26.556 24.9061C25.9116 24.9061 25.3884 24.3829 25.3884 23.7385C25.3884 23.0941 25.9104 22.5721 26.556 22.5721Z" fill="url(#paint0_linear_4226_22167)"/>
<path d="M109.535 91.394H107.786C105.449 91.394 103.29 90.6272 101.549 89.3312L107.626 96.1184C108.346 96.9224 108.277 98.1572 107.473 98.8772L105.865 100.317C105.061 101.037 103.826 100.969 103.106 100.165L93.9552 89.9444L92.574 91.1804L90.3672 88.7168C89.1756 89.1236 87.9372 89.342 86.6952 89.3768C86.1864 94.4984 82.2852 98.6192 77.2716 99.4616C76.6536 99.5648 76.0176 99.62 75.3708 99.62H22.6344C16.9476 99.62 12.0456 96.2588 9.8064 91.4144C4.3344 91.754 0 96.2984 0 101.857C0 104.746 1.1712 107.362 3.0648 109.256C4.9596 111.151 7.5744 112.321 10.464 112.321H109.534C115.313 112.321 119.999 107.635 119.999 101.856C119.999 98.966 118.828 96.35 116.934 94.4576C115.039 92.5628 112.424 91.3928 109.535 91.3928V91.394ZM88.56 101.125C87.5616 101.125 86.7516 100.315 86.7516 99.3176C86.7516 98.3204 87.5616 97.5092 88.56 97.5092C89.5584 97.5092 90.3672 98.3192 90.3672 99.3176C90.3672 100.316 89.5584 101.125 88.56 101.125Z" fill="url(#paint1_linear_4226_22167)"/>
<path d="M8.5092 70.28V63.536H31.8204V55.4288C27.7692 54.9692 24.2712 52.6856 22.1676 49.418C21.6552 49.4948 21.1308 49.5356 20.598 49.5356H10.4652C4.686 49.5356 0 54.2204 0 60.0008C0 62.8904 1.1712 65.5064 3.0648 67.3988C4.5204 68.8544 6.4032 69.8828 8.5092 70.2812V70.28ZM15.3696 53.0012C16.35 53.0012 17.1444 53.7968 17.1444 54.7772C17.1444 55.7576 16.35 56.552 15.3696 56.552C14.3892 56.552 13.5936 55.7576 13.5936 54.7772C13.5936 53.7968 14.3892 53.0012 15.3696 53.0012Z" fill="url(#paint2_linear_4226_22167)"/>
<path d="M98.543 85.8359L98.4746 85.8971L98.7458 86.2007C98.6762 86.0807 98.6078 85.9595 98.543 85.8359Z" fill="url(#paint3_linear_4226_22167)"/>
<path d="M111.491 49.7188V63.5355H86.7529V64.4055C90.0397 64.5135 93.2785 65.914 95.6449 68.5576C97.4761 70.6036 98.5081 73.0864 98.7649 75.6244C100.584 72.5368 103.944 70.4632 107.787 70.4632H109.535C115.314 70.4632 120 65.7784 120 60.0004C120 57.1108 118.829 54.4936 116.935 52.6012C115.48 51.1456 113.597 50.1172 111.491 49.7188ZM102.913 70.174C102.101 70.174 101.442 69.5152 101.442 68.7028C101.442 67.8904 102.101 67.2316 102.913 67.2316C103.726 67.2316 104.385 67.8904 104.385 68.7028C104.385 69.5152 103.726 70.174 102.913 70.174Z" fill="url(#paint4_linear_4226_22167)"/>
<path d="M99.1226 18.875C92.2922 18.875 86.7542 24.4142 86.7542 31.2434V64.4066C83.651 64.3022 80.5046 65.3498 78.0086 67.5842C72.8678 72.1874 72.431 80.0834 77.033 85.223C79.5854 88.073 83.1506 89.4782 86.6966 89.3774C86.1878 94.499 82.2866 98.6198 77.273 99.4622C76.655 99.5654 76.019 99.6206 75.3722 99.6206H69.9074C62.1062 99.6206 55.7834 93.2966 55.7834 85.4966V63.5366H31.8218V55.4294C32.3186 55.487 32.8226 55.5158 33.3338 55.5158C35.417 55.5158 37.3874 55.037 39.1406 54.1802C43.5602 52.0274 46.6058 47.4914 46.6058 42.2438C46.6058 34.9154 40.6646 28.9742 33.3338 28.9742C32.8898 28.9742 32.4506 28.9958 32.0174 29.039C33.0578 23.261 38.1122 18.875 44.1926 18.875H99.1226Z" fill="url(#paint5_linear_4226_22167)"/>
<path d="M111.492 31.2434V63.5354H86.7539V31.2434C86.7539 24.413 92.2919 18.875 99.1235 18.875C102.539 18.875 105.631 20.2585 107.869 22.4978C110.107 24.7358 111.492 27.8282 111.492 31.2434Z" fill="url(#paint6_linear_4226_22167)"/>
<path d="M69.9061 99.6211H22.6357C14.8345 99.6211 8.51172 93.2971 8.51172 85.4971V63.5371H55.7833V85.4971C55.7833 93.2983 62.1073 99.6211 69.9073 99.6211H69.9061Z" fill="url(#paint7_linear_4226_22167)"/>
<path d="M46.6053 42.2442C46.6053 47.4918 43.5609 52.0278 39.1413 54.1794C37.3881 55.0362 35.4177 55.515 33.3345 55.515C26.0061 55.515 20.0649 49.5738 20.0649 42.2442C20.0649 39.0138 21.2193 36.051 23.1405 33.7494C25.5729 30.831 29.2365 28.9746 33.3345 28.9746C40.6641 28.9746 46.6053 34.9158 46.6053 42.2442Z" fill="url(#paint8_linear_4226_22167)"/>
<path d="M39.4361 47.0871L38.1749 48.3471C37.7549 48.7671 37.0733 48.7671 36.6545 48.3471L33.3341 45.0267L30.0125 48.3471C29.5937 48.7671 28.9121 48.7671 28.4921 48.3471L27.2309 47.0871C26.8097 46.6659 26.8097 45.9855 27.2309 45.5655L30.5513 42.2463L27.2309 38.9247C26.8109 38.5047 26.8097 37.8243 27.2309 37.4043L28.4921 36.1431C28.9121 35.7231 29.5937 35.7231 30.0125 36.1431L33.3341 39.4647L36.6545 36.1431C37.0745 35.7231 37.7561 35.7231 38.1749 36.1431L39.4361 37.4043C39.8573 37.8255 39.8561 38.5059 39.4361 38.9247L36.1157 42.2463L39.4361 45.5655C39.8573 45.9855 39.8573 46.6671 39.4361 47.0871Z" fill="url(#paint9_linear_4226_22167)"/>
<g opacity="0.5">
<path d="M78.7196 35.6673H53.072C52.8728 35.6673 52.712 35.5065 52.712 35.3073C52.712 35.1081 52.8728 34.9473 53.072 34.9473H78.7196C78.9188 34.9473 79.0796 35.1081 79.0796 35.3073C79.0796 35.5065 78.9188 35.6673 78.7196 35.6673ZM78.7196 41.5653H53.072C52.8728 41.5653 52.712 41.4045 52.712 41.2053C52.712 41.0061 52.8728 40.8453 53.072 40.8453H78.7196C78.9188 40.8453 79.0796 41.0061 79.0796 41.2053C79.0796 41.4045 78.9188 41.5653 78.7196 41.5653ZM78.7196 47.4633H53.072C52.8728 47.4633 52.712 47.3025 52.712 47.1033C52.712 46.9041 52.8728 46.7433 53.072 46.7433H78.7196C78.9188 46.7433 79.0796 46.9041 79.0796 47.1033C79.0796 47.3025 78.9188 47.4633 78.7196 47.4633ZM78.7196 53.3613H53.072C52.8728 53.3613 52.712 53.2005 52.712 53.0013C52.712 52.8021 52.8728 52.6413 53.072 52.6413H78.7196C78.9188 52.6413 79.0796 52.8021 79.0796 53.0013C79.0796 53.2005 78.9188 53.3613 78.7196 53.3613ZM78.7196 59.2605H37.2296C37.0304 59.2605 36.8696 59.0997 36.8696 58.9005C36.8696 58.7013 37.0304 58.5405 37.2296 58.5405H78.7196C78.9188 58.5405 79.0796 58.7013 79.0796 58.9005C79.0796 59.0997 78.9188 59.2605 78.7196 59.2605ZM71.8148 70.5345H56.1884C55.9892 70.5345 55.8284 70.3737 55.8284 70.1745C55.8284 69.9753 55.9892 69.8145 56.1884 69.8145H71.8148C72.014 69.8145 72.1748 69.9753 72.1748 70.1745C72.1748 70.3737 72.014 70.5345 71.8148 70.5345ZM71.8148 76.9545H56.1884C55.9892 76.9545 55.8284 76.7937 55.8284 76.5945C55.8284 76.3953 55.9892 76.2345 56.1884 76.2345H71.8148C72.014 76.2345 72.1748 76.3953 72.1748 76.5945C72.1748 76.7937 72.014 76.9545 71.8148 76.9545ZM71.8148 83.3757H56.1884C55.9892 83.3757 55.8284 83.2149 55.8284 83.0157C55.8284 82.8165 55.9892 82.6557 56.1884 82.6557H71.8148C72.014 82.6557 72.1748 82.8165 72.1748 83.0157C72.1748 83.2149 72.014 83.3757 71.8148 83.3757Z" fill="#CCD2D6"/>
</g>
<path d="M44.6317 91.2063H13.5949C13.3957 91.2063 13.2349 91.0455 13.2349 90.8463C13.2349 90.6471 13.3957 90.4863 13.5949 90.4863H44.6317C44.8309 90.4863 44.9917 90.6471 44.9917 90.8463C44.9917 91.0455 44.8309 91.2063 44.6317 91.2063Z" fill="#CCD2D6"/>
<path d="M99.8561 84.6616L92.5733 91.1812L90.3677 88.7176C91.9121 88.1932 93.3785 87.3544 94.6721 86.1976C95.9645 85.0408 96.9581 83.6764 97.6517 82.1992L99.8561 84.6616Z" fill="url(#paint10_linear_4226_22167)"/>
<path d="M93.956 89.9445L98.4752 85.8982L107.627 96.1194C108.346 96.9222 108.278 98.1584 107.475 98.878L105.865 100.319C105.063 101.038 103.826 100.97 103.107 100.167L93.9551 89.9453L93.956 89.9445Z" fill="url(#paint11_linear_4226_22167)"/>
<path d="M95.6454 68.5574C93.279 65.9138 90.0402 64.5146 86.7522 64.4054C83.649 64.3022 80.5026 65.3486 78.0066 67.5842C72.867 72.1874 72.429 80.0822 77.0322 85.223C79.5846 88.073 83.1498 89.477 86.6958 89.3774C87.9378 89.3426 89.1762 89.1242 90.3666 88.7174C91.9122 88.193 93.3786 87.3554 94.671 86.1974C95.9634 85.0406 96.957 83.6762 97.6506 82.199C99.711 77.7998 99.0894 72.4058 95.6442 68.5574H95.6454ZM93.063 81.737C92.721 82.2134 92.3214 82.6586 91.8678 83.0654C91.413 83.4734 90.9258 83.8214 90.4146 84.1106C87.099 85.9862 82.8102 85.3754 80.1654 82.421C77.1102 79.0106 77.4006 73.7702 80.8098 70.7174C84.2202 67.6634 89.4606 67.9526 92.5134 71.363C95.1594 74.3174 95.295 78.6494 93.063 81.737Z" fill="url(#paint12_linear_4226_22167)"/>
<path d="M93.063 81.7352C92.721 82.2116 92.3214 82.6568 91.8678 83.0636C91.413 83.4716 90.9258 83.8196 90.4146 84.1088C87.099 85.9844 82.8102 85.3736 80.1654 82.4192C77.1102 79.0088 77.4006 73.7684 80.8098 70.7156C84.2202 67.6616 89.4606 67.9508 92.5134 71.3612C95.1594 74.3156 95.295 78.6476 93.063 81.7352Z" fill="url(#paint13_linear_4226_22167)"/>
<path opacity="0.5" d="M15.3695 56.5535C16.3497 56.5535 17.1443 55.7589 17.1443 54.7787C17.1443 53.7985 16.3497 53.0039 15.3695 53.0039C14.3893 53.0039 13.5947 53.7985 13.5947 54.7787C13.5947 55.7589 14.3893 56.5535 15.3695 56.5535Z" fill="url(#paint14_linear_4226_22167)"/>
<path d="M102.913 70.1748C103.726 70.1748 104.384 69.5161 104.384 68.7036C104.384 67.8911 103.726 67.2324 102.913 67.2324C102.101 67.2324 101.442 67.8911 101.442 68.7036C101.442 69.5161 102.101 70.1748 102.913 70.1748Z" fill="url(#paint15_linear_4226_22167)"/>
<path d="M102.535 81.2469C103.139 81.2469 103.628 80.7575 103.628 80.1537C103.628 79.55 103.139 79.0605 102.535 79.0605C101.931 79.0605 101.442 79.55 101.442 80.1537C101.442 80.7575 101.931 81.2469 102.535 81.2469Z" fill="url(#paint16_linear_4226_22167)"/>
<path d="M88.5596 101.126C89.5577 101.126 90.3668 100.317 90.3668 99.3189C90.3668 98.3208 89.5577 97.5117 88.5596 97.5117C87.5616 97.5117 86.7524 98.3208 86.7524 99.3189C86.7524 100.317 87.5616 101.126 88.5596 101.126Z" fill="url(#paint17_linear_4226_22167)"/>
<path d="M26.556 24.907C27.2002 24.907 27.7224 24.3848 27.7224 23.7406C27.7224 23.0964 27.2002 22.5742 26.556 22.5742C25.9119 22.5742 25.3896 23.0964 25.3896 23.7406C25.3896 24.3848 25.9119 24.907 26.556 24.907Z" fill="url(#paint18_linear_4226_22167)"/>
</g>
<defs>
<linearGradient id="paint0_linear_4226_22167" x1="60" y1="12.7729" x2="60" y2="111.305" gradientUnits="userSpaceOnUse">
<stop stop-color="#CCD2D6" stop-opacity="0.1"/>
<stop offset="1" stop-color="#CCD2D6" stop-opacity="0.25"/>
</linearGradient>
<linearGradient id="paint1_linear_4226_22167" x1="60" y1="-0.000413444" x2="60" y2="111.306" gradientUnits="userSpaceOnUse">
<stop stop-color="#CCD2D6" stop-opacity="0.1"/>
<stop offset="1" stop-color="#CCD2D6" stop-opacity="0.25"/>
</linearGradient>
<linearGradient id="paint2_linear_4226_22167" x1="15.9096" y1="12.7736" x2="15.9096" y2="111.306" gradientUnits="userSpaceOnUse">
<stop stop-color="#CCD2D6" stop-opacity="0.1"/>
<stop offset="1" stop-color="#CCD2D6" stop-opacity="0.25"/>
</linearGradient>
<linearGradient id="paint3_linear_4226_22167" x1="98.6102" y1="12.7733" x2="98.6102" y2="111.305" gradientUnits="userSpaceOnUse">
<stop stop-color="#CCD2D6" stop-opacity="0.1"/>
<stop offset="1" stop-color="#CCD2D6" stop-opacity="0.25"/>
</linearGradient>
<linearGradient id="paint4_linear_4226_22167" x1="103.377" y1="12.7731" x2="103.377" y2="111.305" gradientUnits="userSpaceOnUse">
<stop stop-color="#CCD2D6" stop-opacity="0.1"/>
<stop offset="1" stop-color="#CCD2D6" stop-opacity="0.25"/>
</linearGradient>
<linearGradient id="paint5_linear_4226_22167" x1="66.8318" y1="37.8482" x2="46.6106" y2="96.3062" gradientUnits="userSpaceOnUse">
<stop stop-color="#CCD2D6" stop-opacity="0.25"/>
<stop offset="1" stop-color="#CCD2D6" stop-opacity="0.5"/>
</linearGradient>
<linearGradient id="paint6_linear_4226_22167" x1="102.919" y1="52.277" x2="70.7483" y2="-3.2398" gradientUnits="userSpaceOnUse">
<stop stop-color="#CCD2D6" stop-opacity="0.4"/>
<stop offset="1" stop-color="#CCD2D6" stop-opacity="0.9"/>
</linearGradient>
<linearGradient id="paint7_linear_4226_22167" x1="8.51052" y1="81.5791" x2="69.9061" y2="81.5791" gradientUnits="userSpaceOnUse">
<stop stop-color="#CCD2D6" stop-opacity="0.4"/>
<stop offset="1" stop-color="#CCD2D6" stop-opacity="0.9"/>
</linearGradient>
<linearGradient id="paint8_linear_4226_22167" x1="28.4217" y1="26.7846" x2="38.4393" y2="58.311" gradientUnits="userSpaceOnUse">
<stop stop-color="#CCD2D6" stop-opacity="0.25"/>
<stop offset="1" stop-color="#CCD2D6" stop-opacity="0.5"/>
</linearGradient>
<linearGradient id="paint9_linear_4226_22167" x1="32.9633" y1="34.9455" x2="33.6065" y2="47.6295" gradientUnits="userSpaceOnUse">
<stop stop-color="#CCD2D6" stop-opacity="0.7"/>
<stop offset="1" stop-color="#CCD2D6"/>
</linearGradient>
<linearGradient id="paint10_linear_4226_22167" x1="95.2937" y1="88.3888" x2="94.6001" y2="81.8932" gradientUnits="userSpaceOnUse">
<stop stop-color="#CCD2D6" stop-opacity="0.7"/>
<stop offset="1" stop-color="#CCD2D6"/>
</linearGradient>
<linearGradient id="paint11_linear_4226_22167" x1="102.34" y1="95.4046" x2="93.3537" y2="81.5146" gradientUnits="userSpaceOnUse">
<stop stop-color="#CCD2D6" stop-opacity="0.7"/>
<stop offset="1" stop-color="#CCD2D6"/>
</linearGradient>
<linearGradient id="paint12_linear_4226_22167" x1="81.4914" y1="64.3466" x2="96.1974" y2="102.399" gradientUnits="userSpaceOnUse">
<stop stop-color="#CCD2D6" stop-opacity="0.4"/>
<stop offset="1" stop-color="#CCD2D6" stop-opacity="0.9"/>
</linearGradient>
<linearGradient id="paint13_linear_4226_22167" x1="82.047" y1="70.1252" x2="96.5694" y2="93.0128" gradientUnits="userSpaceOnUse">
<stop stop-color="#CCD2D6" stop-opacity="0.25"/>
<stop offset="1" stop-color="#CCD2D6" stop-opacity="0.5"/>
</linearGradient>
<linearGradient id="paint14_linear_4226_22167" x1="36.3623" y1="32.1707" x2="-4.26366" y2="75.9215" gradientUnits="userSpaceOnUse">
<stop stop-color="#CCD2D6" stop-opacity="0.4"/>
<stop offset="1" stop-color="#CCD2D6" stop-opacity="0.9"/>
</linearGradient>
<linearGradient id="paint15_linear_4226_22167" x1="90.3155" y1="82.2696" x2="49.6896" y2="126.02" gradientUnits="userSpaceOnUse">
<stop stop-color="#CCD2D6" stop-opacity="0.4"/>
<stop offset="1" stop-color="#CCD2D6" stop-opacity="0.9"/>
</linearGradient>
<linearGradient id="paint16_linear_4226_22167" x1="95.8211" y1="87.3825" x2="55.1952" y2="131.135" gradientUnits="userSpaceOnUse">
<stop stop-color="#CCD2D6" stop-opacity="0.4"/>
<stop offset="1" stop-color="#CCD2D6" stop-opacity="0.9"/>
</linearGradient>
<linearGradient id="paint17_linear_4226_22167" x1="97.8728" y1="89.2881" x2="57.2468" y2="133.04" gradientUnits="userSpaceOnUse">
<stop stop-color="#CCD2D6" stop-opacity="0.4"/>
<stop offset="1" stop-color="#CCD2D6" stop-opacity="0.9"/>
</linearGradient>
<linearGradient id="paint18_linear_4226_22167" x1="26.8932" y1="23.377" x2="-13.734" y2="67.129" gradientUnits="userSpaceOnUse">
<stop stop-color="#CCD2D6" stop-opacity="0.4"/>
<stop offset="1" stop-color="#CCD2D6" stop-opacity="0.9"/>
</linearGradient>
<clipPath id="clip0_4226_22167">
<rect width="120" height="120" fill="white"/>
</clipPath>
</defs>
</svg>
