<svg width="32" height="35" viewBox="0 0 32 35" fill="none" xmlns="http://www.w3.org/2000/svg">
<path opacity="0.955" fill-rule="evenodd" clip-rule="evenodd" d="M13.4724 0.0127959C14.0078 -0.0430407 14.5437 0.0838606 15.0798 0.3935C15.7244 0.840531 16.3448 1.31996 16.941 1.83171C17.1242 1.9922 17.1806 2.17553 17.1102 2.38162C13.4781 4.8754 9.84031 7.37112 6.19672 9.8688C5.5815 10.2304 4.9893 10.6252 4.4201 11.0532C4.12814 11.1164 4.09997 11.06 4.3355 10.884C4.30733 10.8558 4.27907 10.8276 4.2509 10.7994C7.02995 7.42781 9.77948 4.02973 12.4995 0.605002C12.8249 0.393669 13.1492 0.196295 13.4724 0.0127959Z" fill="#FAD61A"/>
<path opacity="0.966" fill-rule="evenodd" clip-rule="evenodd" d="M19.4795 1.87447C20.3941 1.73318 21.2119 1.94469 21.9329 2.50897C22.9522 3.64102 23.8405 4.86773 24.5978 6.18911C24.6393 6.2985 24.6534 6.41136 24.6401 6.52751C17.4364 8.80336 10.2453 11.1299 3.06692 13.5071C2.94476 13.5731 2.83198 13.5587 2.72852 13.4648C2.94179 13.1814 3.1956 12.9413 3.48992 12.7457C8.58932 9.25361 13.6654 5.72854 18.7181 2.17057C18.9903 2.09443 19.2441 1.9957 19.4795 1.87447Z" fill="#E16635"/>
<path opacity="0.967" fill-rule="evenodd" clip-rule="evenodd" d="M25.1473 7.03514C26.9218 6.73709 28.1485 7.4139 28.8275 9.06556C29.4487 10.9151 30.0268 12.7763 30.5618 14.6492C22.1294 14.6568 13.6975 14.6433 5.26612 14.6069C3.7318 14.9005 2.81532 15.8167 2.51659 17.3564C2.50246 19.9512 2.46016 22.5459 2.38969 25.1397C1.6128 22.8538 0.837265 20.5696 0.063167 18.2871C-0.20358 16.6915 0.374498 15.5215 1.79748 14.7761C9.59675 12.1999 17.38 9.61953 25.1473 7.03514Z" fill="#1F9F7D"/>
<path opacity="0.968" fill-rule="evenodd" clip-rule="evenodd" d="M5.68916 15.4097C13.6699 15.3953 21.6505 15.4097 29.6312 15.452C30.9911 15.7405 31.7666 16.5721 31.9577 17.9477C32.0141 21.3038 32.0141 24.6591 31.9577 28.0152C31.739 29.3054 30.9917 30.1091 29.7158 30.4264C23.3423 30.4407 16.9691 30.483 10.596 30.5533C10.0113 31.9619 9.47555 33.3578 8.98859 34.741C8.90839 34.7816 8.82379 34.796 8.73479 34.7833C8.73479 31.6251 8.73479 28.4662 8.73479 25.308C10.027 26.1549 11.3524 26.1972 12.711 25.4349C14.0505 24.3825 14.5158 23.0145 14.1069 21.3318C13.4469 19.5441 12.1637 18.7125 10.2576 18.836C8.64528 19.0949 7.61594 20.0111 7.16967 21.5856C7.08719 22.2032 7.04489 22.8233 7.04277 23.4468C7.12966 25.7302 7.14378 28.0144 7.08507 30.2995C5.49999 30.7478 4.31558 30.2402 3.53184 28.7766C3.45722 28.4983 3.40087 28.2166 3.36263 27.9306C3.30621 24.6033 3.30621 21.2751 3.36263 17.9477C3.56686 16.573 4.3424 15.727 5.68916 15.4097ZM20.9173 17.9477C22.3916 17.8166 23.7452 18.1406 24.9781 18.9206C24.7623 19.2819 24.579 19.6626 24.4282 20.0628C23.1284 19.1711 21.7325 18.9596 20.2405 19.4282C19.5098 19.9342 19.3829 20.5687 19.8598 21.3318C20.0353 21.4967 20.2186 21.6524 20.4097 21.7971C21.6704 22.2268 22.9113 22.7057 24.1321 23.2353C25.2327 24.2327 25.4442 25.4036 24.7666 26.7462C23.9156 27.742 22.8299 28.1937 21.5095 28.0998C20.3072 28.1184 19.2074 27.7944 18.2101 27.1269C17.9552 26.9848 17.7578 26.7877 17.6179 26.5347C17.7682 26.1633 17.9515 25.8114 18.1678 25.4772C19.6038 26.8689 21.2535 27.2208 23.1169 26.5347C23.839 25.8554 23.8954 25.1227 23.2861 24.3351C22.9894 24.1447 22.6793 23.9755 22.3555 23.8275C21.309 23.5441 20.2938 23.1778 19.3099 22.7277C18.2766 22.001 17.924 21.028 18.2524 19.8089C18.7838 18.6761 19.6722 18.056 20.9173 17.9477ZM25.9088 19.2167C26.9087 19.1304 27.3458 19.5822 27.2201 20.5704C26.9389 21.1126 26.5019 21.2954 25.9088 21.1203C25.1232 20.4858 25.1232 19.8512 25.9088 19.2167ZM15.5029 23.7852C16.5451 23.7412 16.954 24.22 16.7296 25.2234C16.4358 25.6735 16.027 25.8283 15.5029 25.6887C14.6094 25.055 14.6094 24.4205 15.5029 23.7852Z" fill="white"/>
<path opacity="0.937" fill-rule="evenodd" clip-rule="evenodd" d="M10.1727 20.5707C11.7025 20.4658 12.5062 21.1714 12.5839 22.6858C12.2457 23.9192 11.442 24.4691 10.1727 24.3355C8.84848 23.7348 8.46777 22.7619 9.03062 21.4167C9.33341 21.0132 9.71411 20.7315 10.1727 20.5707Z" fill="white"/>
</svg>
